<?xml version="1.0" standalone="no"?><!DOCTYPE svg PUBLIC "-//W3C//DTD SVG 1.1//EN" "http://www.w3.org/Graphics/SVG/1.1/DTD/svg11.dtd"><svg class="icon" width="16px" height="16.00px" viewBox="0 0 1024 1024" version="1.1" xmlns="http://www.w3.org/2000/svg"><path d="M109.714286 146.285714h804.571428a36.571429 36.571429 0 0 1 36.571429 36.571429v658.285714a36.571429 36.571429 0 0 1-36.571429 36.571429H109.714286a36.571429 36.571429 0 0 1-36.571429-36.571429V182.857143a36.571429 36.571429 0 0 1 36.571429-36.571429z m0 36.571429v109.714286h804.571428v-109.714286H109.714286z m146.285714 91.428571a36.571429 36.571429 0 1 1 0-73.142857 36.571429 36.571429 0 0 1 0 73.142857z m512 0a36.571429 36.571429 0 1 1 0-73.142857 36.571429 36.571429 0 0 1 0 73.142857zM109.714286 329.142857v512h804.571428V329.142857H109.714286z m73.142857 54.857143h73.142857a18.285714 18.285714 0 0 1 18.285714 18.285714v73.142857a18.285714 18.285714 0 0 1-18.285714 18.285715h-73.142857a18.285714 18.285714 0 0 1-18.285714-18.285715v-73.142857a18.285714 18.285714 0 0 1 18.285714-18.285714z m0 292.571429h73.142857a18.285714 18.285714 0 0 1 18.285714 18.285714v73.142857a18.285714 18.285714 0 0 1-18.285714 18.285714h-73.142857a18.285714 18.285714 0 0 1-18.285714-18.285714v-73.142857a18.285714 18.285714 0 0 1 18.285714-18.285714z m438.857143-292.571429h73.142857a18.285714 18.285714 0 0 1 18.285714 18.285714v73.142857a18.285714 18.285714 0 0 1-18.285714 18.285715h-73.142857a18.285714 18.285714 0 0 1-18.285715-18.285715v-73.142857a18.285714 18.285714 0 0 1 18.285715-18.285714z m0 146.285714h73.142857a18.285714 18.285714 0 0 1 18.285714 18.285715v73.142857a18.285714 18.285714 0 0 1-18.285714 18.285714h-73.142857a18.285714 18.285714 0 0 1-18.285715-18.285714v-73.142857a18.285714 18.285714 0 0 1 18.285715-18.285715z m146.285714 146.285715h73.142857a18.285714 18.285714 0 0 1 18.285714 18.285714v73.142857a18.285714 18.285714 0 0 1-18.285714 18.285714h-73.142857a18.285714 18.285714 0 0 1-18.285714-18.285714v-73.142857a18.285714 18.285714 0 0 1 18.285714-18.285714zM201.142857 457.142857h36.571429v-36.571428h-36.571429v36.571428z m0 292.571429h36.571429v-36.571429h-36.571429v36.571429z m438.857143-329.142857v36.571428h36.571429v-36.571428h-36.571429z m0 146.285714v36.571428h36.571429v-36.571428h-36.571429z m146.285714 146.285714v36.571429h36.571429v-36.571429h-36.571429zM182.857143 530.285714h73.142857a18.285714 18.285714 0 0 1 18.285714 18.285715v73.142857a18.285714 18.285714 0 0 1-18.285714 18.285714h-73.142857a18.285714 18.285714 0 0 1-18.285714-18.285714v-73.142857a18.285714 18.285714 0 0 1 18.285714-18.285715z m146.285714-146.285714h73.142857a18.285714 18.285714 0 0 1 18.285715 18.285714v73.142857a18.285714 18.285714 0 0 1-18.285715 18.285715h-73.142857a18.285714 18.285714 0 0 1-18.285714-18.285715v-73.142857a18.285714 18.285714 0 0 1 18.285714-18.285714z m0 146.285714h73.142857a18.285714 18.285714 0 0 1 18.285715 18.285715v73.142857a18.285714 18.285714 0 0 1-18.285715 18.285714h-73.142857a18.285714 18.285714 0 0 1-18.285714-18.285714v-73.142857a18.285714 18.285714 0 0 1 18.285714-18.285715z m0 146.285715h73.142857a18.285714 18.285714 0 0 1 18.285715 18.285714v73.142857a18.285714 18.285714 0 0 1-18.285715 18.285714h-73.142857a18.285714 18.285714 0 0 1-18.285714-18.285714v-73.142857a18.285714 18.285714 0 0 1 18.285714-18.285714z m146.285714-292.571429h73.142858a18.285714 18.285714 0 0 1 18.285714 18.285714v73.142857a18.285714 18.285714 0 0 1-18.285714 18.285715h-73.142858a18.285714 18.285714 0 0 1-18.285714-18.285715v-73.142857a18.285714 18.285714 0 0 1 18.285714-18.285714z m0 146.285714h73.142858a18.285714 18.285714 0 0 1 18.285714 18.285715v73.142857a18.285714 18.285714 0 0 1-18.285714 18.285714h-73.142858a18.285714 18.285714 0 0 1-18.285714-18.285714v-73.142857a18.285714 18.285714 0 0 1 18.285714-18.285715z m0 146.285715h73.142858a18.285714 18.285714 0 0 1 18.285714 18.285714v73.142857a18.285714 18.285714 0 0 1-18.285714 18.285714h-73.142858a18.285714 18.285714 0 0 1-18.285714-18.285714v-73.142857a18.285714 18.285714 0 0 1 18.285714-18.285714z m146.285715 0h73.142857a18.285714 18.285714 0 0 1 18.285714 18.285714v73.142857a18.285714 18.285714 0 0 1-18.285714 18.285714h-73.142857a18.285714 18.285714 0 0 1-18.285715-18.285714v-73.142857a18.285714 18.285714 0 0 1 18.285715-18.285714z m146.285714-292.571429h73.142857a18.285714 18.285714 0 0 1 18.285714 18.285714v73.142857a18.285714 18.285714 0 0 1-18.285714 18.285715h-73.142857a18.285714 18.285714 0 0 1-18.285714-18.285715v-73.142857a18.285714 18.285714 0 0 1 18.285714-18.285714z m0 146.285714h73.142857a18.285714 18.285714 0 0 1 18.285714 18.285715v73.142857a18.285714 18.285714 0 0 1-18.285714 18.285714h-73.142857a18.285714 18.285714 0 0 1-18.285714-18.285714v-73.142857a18.285714 18.285714 0 0 1 18.285714-18.285715z" fill="#005DBA" /><path d="M109.714286 182.857143h804.571428v109.714286H109.714286v-109.714286z m146.285714 91.428571a36.571429 36.571429 0 1 0 0-73.142857 36.571429 36.571429 0 0 0 0 73.142857z m512 0a36.571429 36.571429 0 1 0 0-73.142857 36.571429 36.571429 0 0 0 0 73.142857zM109.714286 329.142857h804.571428v512H109.714286V329.142857z m73.142857 54.857143a18.285714 18.285714 0 0 0-18.285714 18.285714v73.142857a18.285714 18.285714 0 0 0 18.285714 18.285715h73.142857a18.285714 18.285714 0 0 0 18.285714-18.285715v-73.142857a18.285714 18.285714 0 0 0-18.285714-18.285714h-73.142857z m0 292.571429a18.285714 18.285714 0 0 0-18.285714 18.285714v73.142857a18.285714 18.285714 0 0 0 18.285714 18.285714h73.142857a18.285714 18.285714 0 0 0 18.285714-18.285714v-73.142857a18.285714 18.285714 0 0 0-18.285714-18.285714h-73.142857z m438.857143-292.571429a18.285714 18.285714 0 0 0-18.285715 18.285714v73.142857a18.285714 18.285714 0 0 0 18.285715 18.285715h73.142857a18.285714 18.285714 0 0 0 18.285714-18.285715v-73.142857a18.285714 18.285714 0 0 0-18.285714-18.285714h-73.142857z m0 146.285714a18.285714 18.285714 0 0 0-18.285715 18.285715v73.142857a18.285714 18.285714 0 0 0 18.285715 18.285714h73.142857a18.285714 18.285714 0 0 0 18.285714-18.285714v-73.142857a18.285714 18.285714 0 0 0-18.285714-18.285715h-73.142857z m146.285714 146.285715a18.285714 18.285714 0 0 0-18.285714 18.285714v73.142857a18.285714 18.285714 0 0 0 18.285714 18.285714h73.142857a18.285714 18.285714 0 0 0 18.285714-18.285714v-73.142857a18.285714 18.285714 0 0 0-18.285714-18.285714h-73.142857zM201.142857 457.142857v-36.571428h36.571429v36.571428h-36.571429z m0 292.571429v-36.571429h36.571429v36.571429h-36.571429z m438.857143-329.142857h36.571429v36.571428h-36.571429v-36.571428z m0 146.285714h36.571429v36.571428h-36.571429v-36.571428z m146.285714 146.285714h36.571429v36.571429h-36.571429v-36.571429zM182.857143 530.285714a18.285714 18.285714 0 0 0-18.285714 18.285715v73.142857a18.285714 18.285714 0 0 0 18.285714 18.285714h73.142857a18.285714 18.285714 0 0 0 18.285714-18.285714v-73.142857a18.285714 18.285714 0 0 0-18.285714-18.285715h-73.142857z m146.285714-146.285714a18.285714 18.285714 0 0 0-18.285714 18.285714v73.142857a18.285714 18.285714 0 0 0 18.285714 18.285715h73.142857a18.285714 18.285714 0 0 0 18.285715-18.285715v-73.142857a18.285714 18.285714 0 0 0-18.285715-18.285714h-73.142857z m0 146.285714a18.285714 18.285714 0 0 0-18.285714 18.285715v73.142857a18.285714 18.285714 0 0 0 18.285714 18.285714h73.142857a18.285714 18.285714 0 0 0 18.285715-18.285714v-73.142857a18.285714 18.285714 0 0 0-18.285715-18.285715h-73.142857z m0 146.285715a18.285714 18.285714 0 0 0-18.285714 18.285714v73.142857a18.285714 18.285714 0 0 0 18.285714 18.285714h73.142857a18.285714 18.285714 0 0 0 18.285715-18.285714v-73.142857a18.285714 18.285714 0 0 0-18.285715-18.285714h-73.142857z m146.285714-292.571429a18.285714 18.285714 0 0 0-18.285714 18.285714v73.142857a18.285714 18.285714 0 0 0 18.285714 18.285715h73.142858a18.285714 18.285714 0 0 0 18.285714-18.285715v-73.142857a18.285714 18.285714 0 0 0-18.285714-18.285714h-73.142858z m0 146.285714a18.285714 18.285714 0 0 0-18.285714 18.285715v73.142857a18.285714 18.285714 0 0 0 18.285714 18.285714h73.142858a18.285714 18.285714 0 0 0 18.285714-18.285714v-73.142857a18.285714 18.285714 0 0 0-18.285714-18.285715h-73.142858z m0 146.285715a18.285714 18.285714 0 0 0-18.285714 18.285714v73.142857a18.285714 18.285714 0 0 0 18.285714 18.285714h73.142858a18.285714 18.285714 0 0 0 18.285714-18.285714v-73.142857a18.285714 18.285714 0 0 0-18.285714-18.285714h-73.142858z m146.285715 0a18.285714 18.285714 0 0 0-18.285715 18.285714v73.142857a18.285714 18.285714 0 0 0 18.285715 18.285714h73.142857a18.285714 18.285714 0 0 0 18.285714-18.285714v-73.142857a18.285714 18.285714 0 0 0-18.285714-18.285714h-73.142857z m146.285714-292.571429a18.285714 18.285714 0 0 0-18.285714 18.285714v73.142857a18.285714 18.285714 0 0 0 18.285714 18.285715h73.142857a18.285714 18.285714 0 0 0 18.285714-18.285715v-73.142857a18.285714 18.285714 0 0 0-18.285714-18.285714h-73.142857z m0 146.285714a18.285714 18.285714 0 0 0-18.285714 18.285715v73.142857a18.285714 18.285714 0 0 0 18.285714 18.285714h73.142857a18.285714 18.285714 0 0 0 18.285714-18.285714v-73.142857a18.285714 18.285714 0 0 0-18.285714-18.285715h-73.142857z" fill="#FFFFFF" /></svg>