<?xml version="1.0" standalone="no"?><!DOCTYPE svg PUBLIC "-//W3C//DTD SVG 1.1//EN" "http://www.w3.org/Graphics/SVG/1.1/DTD/svg11.dtd"><svg class="icon" width="16px" height="16.00px" viewBox="0 0 1024 1024" version="1.1" xmlns="http://www.w3.org/2000/svg"><path fill="#4b8398" d="M563.2 256h-512v512h512V256z m-183.296 400.554667L310.186667 555.648l-0.341334-0.597333a34.218667 34.218667 0 0 1-4.565333 6.058666l-70.485333 95.445334H160.256l115.797333-145.749334-103.552-143.36h72.021334l62.293333 97.408c1.066667 1.237333 2.048 2.517333 2.986667 3.754667l1.450666-2.858667c6.016-8.32 46.506667-72.448 59.818667-93.482666l2.986667-4.821334h73.642666l-103.509333 145.28 109.909333 143.786667H379.904z"  /><path fill="#4b8398" d="M256 0v204.8h51.2V51.2h614.4v921.6H307.2v-153.6H256V1024h716.8V0z"  /><path fill="#4b8398" d="M614.4 384.512h229.077333v51.2H614.4zM614.4 501.333333h229.077333v51.2H614.4zM614.4 618.112h229.077333v51.2H614.4z"  /></svg>