<?xml version="1.0" standalone="no"?><!DOCTYPE svg PUBLIC "-//W3C//DTD SVG 1.1//EN" "http://www.w3.org/Graphics/SVG/1.1/DTD/svg11.dtd"><svg class="icon" width="16px" height="16.00px" viewBox="0 0 1024 1024" version="1.1" xmlns="http://www.w3.org/2000/svg"><path d="M569.056 659.552l339.392 339.424 90.496-90.496-339.392-339.424-90.496 90.496z m-78.528-139.776L400 429.248l-90.496 90.496-45.248-45.248L354.752 384 264.256 293.504l45.248-45.248L400 338.752l90.496-90.496 45.248 45.248L445.248 384l90.496 90.496-45.216 45.28z" fill="#333333" /><path d="M400 768C187.936 768 16 596.064 16 384S187.936 0 400 0s384 171.936 384 384a384 384 0 0 1-384 384z m0-640a256 256 0 1 0 0 512 256 256 0 0 0 0-512z" fill="#7dc5eb" /></svg>